<svg xmlns="http://www.w3.org/2000/svg" fill="none" viewBox="0 0 24 24" height="48" width="48"><path stroke="#ffffff" stroke-linejoin="round" d="M3.5 8.49995V1.67065"></path><path stroke="#ffffff" stroke-linejoin="round" d="M5.5 8.5V1.5"></path><path stroke="#ffffff" stroke-linejoin="round" d="M7.5 8.5V1.5"></path><path stroke="#ffffff" stroke-linejoin="round" d="M1.5 8.5H8.99951"></path><path stroke="#ffffff" stroke-linejoin="round" d="M22.5 8.5H15.0005"></path><path stroke="#ffffff" stroke-linejoin="round" d="M1.5 4.5C1.5 2.84315 2.84315 1.5 4.5 1.5H19.5C21.1569 1.5 22.5 2.84315 22.5 4.5V19.5C22.5 21.1569 21.1569 22.5 19.5 22.5H4.5C2.84315 22.5 1.5 21.1569 1.5 19.5V4.5Z"></path><circle cx="12" cy="12.5" r="5" stroke="#ffffff" stroke-linejoin="round"></circle><path stroke="#ffffff" d="M17 4.5C17 4.22386 17.2239 4 17.5 4H19.5C19.7761 4 20 4.22386 20 4.5V6.5C20 6.77614 19.7761 7 19.5 7H17.5C17.2239 7 17 6.77614 17 6.5V4.5Z"></path></svg>